<svg xmlns="http://www.w3.org/2000/svg" width="18" height="18" viewBox="0 0 18 18">
  <metadata><?xpacket begin="﻿" id="W5M0MpCehiHzreSzNTczkc9d"?>
<x:xmpmeta xmlns:x="adobe:ns:meta/" x:xmptk="Adobe XMP Core 5.6-c138 79.159824, 2016/09/14-01:09:01        ">
   <rdf:RDF xmlns:rdf="http://www.w3.org/1999/02/22-rdf-syntax-ns#">
      <rdf:Description rdf:about=""/>
   </rdf:RDF>
</x:xmpmeta>
                                                                                                    
                                                                                                    
                                                                                                    
                                                                                                    
                                                                                                    
                                                                                                    
                                                                                                    
                                                                                                    
                                                                                                    
                                                                                                    
                                                                                                    
                                                                                                    
                                                                                                    
                                                                                                    
                                                                                                    
                                                                                                    
                                                                                                    
                                                                                                    
                                                                                                    
                                                                                                    
                           
<?xpacket end="w"?></metadata>
<defs>
    <style>
      .cls-1 {
        fill: #fff;
        fill-rule: evenodd;
      }
    </style>
  </defs>
  <path id="Фигура_904" data-name="Фигура 904" class="cls-1" d="M1345.4,560.4a1.8,1.8,0,1,0,1.8,1.8A1.805,1.805,0,0,0,1345.4,560.4ZM1340,546v1.8h1.8l3.24,6.84-1.26,2.161a3.191,3.191,0,0,0-.18.9,1.806,1.806,0,0,0,1.8,1.8h10.8v-1.8h-10.44a0.194,0.194,0,0,1-.18-0.18v-0.09l0.81-1.531h6.66a1.64,1.64,0,0,0,1.53-.9l3.24-5.849a0.5,0.5,0,0,0,.18-0.45,0.851,0.851,0,0,0-.9-0.9h-13.32l-0.81-1.8H1340Zm14.4,14.4a1.8,1.8,0,1,0,1.8,1.8A1.805,1.805,0,0,0,1354.4,560.4Z" transform="translate(-1340 -546)"/>
</svg>
