<svg xmlns="http://www.w3.org/2000/svg" xmlns:xlink="http://www.w3.org/1999/xlink" preserveAspectRatio="xMidYMid" width="78.181" height="70.359" viewBox="0 0 55.625 50.06">
  <defs>
    <style>
      .cls-1 {
        fill: #fff;
      }
    </style>

    <filter id="color-overlay-1" filterUnits="userSpaceOnUse">
      <feFlood flood-color="#3b3b3b"/>
      <feComposite operator="in" in2="SourceGraphic"/>
      <feBlend in2="SourceGraphic" result="solidFill"/>
    </filter>
  </defs>
  <path style="fill: #fff;" d="M54.557,30.697 C53.621,28.226 53.582,26.486 53.826,25.474 C54.068,24.460 54.596,24.137 54.596,24.137 C54.596,24.137 54.558,23.690 54.109,23.690 C53.666,23.690 52.371,23.812 52.371,23.812 C52.371,23.812 53.381,21.868 53.545,18.791 C53.705,15.711 53.465,13.890 53.465,13.484 C53.465,13.080 53.299,12.676 52.818,12.268 C52.330,11.867 51.845,11.055 52.088,10.936 C52.330,10.815 52.655,11.014 52.735,10.773 C52.765,10.676 52.752,10.530 52.737,10.410 C52.721,10.229 52.694,10.083 52.694,10.083 C52.750,10.046 52.936,10.076 52.939,9.947 C52.793,9.707 52.569,9.517 52.569,9.517 C52.569,9.517 52.611,9.194 52.487,8.951 C52.369,8.708 51.883,8.305 51.358,8.426 C50.828,8.546 50.379,8.510 50.338,9.282 C50.314,9.754 50.625,9.759 50.584,10.006 C50.545,10.248 50.562,10.562 50.424,10.735 C50.263,10.937 49.332,9.883 48.682,9.640 C48.036,9.396 47.506,9.396 47.506,9.396 L46.737,10.044 C46.737,10.044 44.185,9.275 42.811,9.234 C41.433,9.193 41.071,9.395 41.311,9.962 C41.553,10.530 42.043,11.097 41.758,11.340 C41.474,11.583 41.191,11.906 41.474,12.111 C41.758,12.312 42.121,12.434 42.121,12.434 C42.121,12.434 40.867,14.053 43.338,13.890 C45.808,13.730 46.414,13.041 46.414,13.041 C46.414,13.041 47.061,13.123 47.266,13.287 C47.465,13.445 47.830,13.729 47.951,13.770 C48.074,13.812 48.317,14.254 49.248,14.295 C50.182,14.336 50.424,14.213 50.584,14.497 C50.746,14.781 51.438,15.428 51.357,15.915 C51.273,16.400 50.406,16.696 50.045,17.326 C49.207,18.765 49.659,20.550 47.588,22.720 C47.108,23.220 46.416,24.015 45.890,24.742 C45.362,25.473 45.161,26.242 45.161,26.242 C45.161,26.242 45.890,26.930 46.938,27.499 C47.994,28.064 48.603,28.629 48.603,28.629 L48.518,29.320 C48.518,29.320 50.424,29.846 49.938,30.656 C49.453,31.466 47.994,31.466 47.994,31.466 L48.036,32.558 L49.576,32.519 C49.576,32.519 49.533,34.584 44.107,35.473 C39.823,36.178 32.172,36.353 28.358,36.396 L28.575,22.753 L28.592,22.070 C28.592,22.070 29.688,21.543 29.281,20.855 C28.983,20.347 28.731,20.018 28.618,19.880 L28.871,3.530 L29.336,3.281 L28.606,0.406 L27.876,3.258 L28.446,3.557 L28.301,12.996 L28.148,19.761 C28.148,19.761 27.986,20.084 27.621,20.248 C27.261,20.407 27.097,20.208 27.097,20.208 C27.097,20.208 26.814,19.233 25.840,18.385 C24.868,17.534 24.260,17.332 24.260,17.332 L24.341,16.805 C24.341,16.805 24.911,17.128 25.069,16.927 C25.234,16.723 25.209,16.443 25.089,16.157 C24.970,15.874 24.990,15.670 24.950,15.550 C24.912,15.427 25.234,15.509 25.234,15.347 C25.234,15.187 24.742,14.628 24.742,14.628 C24.742,14.628 24.677,14.066 24.505,13.769 C24.330,13.470 24.101,13.403 23.330,13.607 C22.559,13.811 22.317,14.133 22.399,14.698 C22.480,15.265 22.640,15.510 22.480,15.632 C22.317,15.753 21.994,15.997 22.196,16.200 C22.399,16.400 22.720,16.562 22.720,16.562 L22.602,17.250 L21.589,17.454 C21.589,17.454 21.831,16.805 21.546,16.641 C21.264,16.479 21.110,16.358 21.110,16.358 L21.124,3.091 L21.579,2.883 L20.848,0.006 L20.118,2.860 L20.590,3.122 L20.564,16.492 C20.564,16.492 20.250,16.806 20.373,17.130 C20.441,17.311 20.520,17.489 20.577,17.655 L20.577,18.315 C20.428,18.703 20.131,19.278 20.131,19.278 C20.131,19.278 19.684,17.778 19.158,17.373 C18.632,16.970 17.941,16.807 17.941,16.807 L17.941,16.037 C17.941,16.037 18.347,15.916 18.508,15.711 C18.672,15.511 18.548,15.228 18.391,14.983 C18.226,14.741 18.267,14.337 18.104,13.812 C17.941,13.285 17.782,13.404 17.782,13.404 C17.782,13.404 17.659,12.920 16.971,13.041 C16.283,13.164 16.042,13.484 16.082,14.214 C16.118,14.944 15.835,14.944 15.878,15.309 C15.915,15.672 16.243,16.037 16.404,16.037 C16.567,16.037 16.605,16.361 16.320,16.564 C16.042,16.769 14.527,17.275 14.527,17.275 C14.527,17.275 14.339,18.913 14.419,20.250 C14.498,21.586 14.783,22.072 15.107,22.274 C15.431,22.478 15.591,22.599 15.591,22.599 C15.591,22.599 15.310,23.570 15.227,24.420 C15.147,25.270 15.147,25.553 15.147,25.553 L14.418,25.230 C14.418,25.230 14.214,24.501 14.214,24.138 C14.214,23.772 14.174,23.042 14.135,22.760 C14.098,22.478 13.932,20.737 14.098,20.047 C14.258,19.357 14.015,18.630 14.056,18.387 C14.098,18.145 14.135,17.699 13.812,17.293 C13.488,16.886 13.367,16.769 13.005,16.604 C12.637,16.443 12.315,16.482 12.234,16.119 C12.153,15.755 12.193,15.390 12.193,15.390 C12.193,15.390 12.637,15.472 12.759,14.783 C12.879,14.095 12.961,13.812 12.515,13.608 C12.515,13.608 12.689,13.145 12.327,12.656 C11.963,12.170 11.502,12.270 11.502,12.270 L11.221,12.191 C11.221,12.191 10.533,12.270 10.292,12.716 C10.046,13.164 10.179,13.352 10.179,13.633 C10.179,13.919 9.801,14.258 10.127,14.499 C10.275,14.606 10.046,15.146 10.412,15.267 C10.774,15.390 10.774,15.390 10.774,15.390 C10.774,15.390 10.938,15.997 10.691,15.916 C10.451,15.836 9.923,15.429 9.236,15.511 C8.547,15.593 7.981,15.593 7.577,15.795 C7.168,15.997 7.413,16.075 6.805,16.075 C6.201,16.075 5.468,16.075 5.468,16.075 C5.468,16.075 5.187,15.795 5.067,15.795 C4.944,15.795 3.405,15.711 3.405,15.711 L3.040,15.876 L1.989,15.836 L1.461,15.672 C1.461,15.672 1.257,15.188 1.138,15.188 C1.138,15.188 1.499,11.340 2.714,9.923 C3.930,8.505 4.576,8.627 5.871,8.343 C7.167,8.059 8.224,7.654 8.789,7.047 C9.357,6.440 9.599,5.751 9.599,5.751 C9.599,5.751 9.727,5.242 9.487,5.619 C8.794,6.729 8.481,7.010 8.032,7.228 C6.293,8.076 5.550,7.777 4.092,8.263 C2.631,8.747 2.149,9.276 1.460,10.775 C0.771,12.270 0.449,15.267 0.449,15.267 C0.449,15.267 0.080,15.472 0.080,15.795 C0.080,16.118 -0.119,16.685 0.040,16.807 C0.203,16.929 0.328,16.848 0.328,16.848 C0.328,16.848 0.408,20.494 1.336,22.274 C2.050,23.637 3.001,24.050 3.406,24.171 C3.606,25.395 3.924,26.695 3.524,27.660 C2.957,29.037 2.553,30.535 2.553,30.535 C2.553,30.535 4.336,31.506 4.981,31.751 C5.631,31.992 5.832,32.238 5.832,32.238 L5.752,33.207 C5.752,33.207 6.479,33.896 7.412,34.017 C8.342,34.140 8.992,34.503 9.356,34.747 C9.723,34.992 9.641,35.842 9.641,35.842 L1.255,35.159 L1.986,38.348 L4.619,38.754 L5.307,40.456 C5.307,40.456 7.694,41.793 11.019,42.601 C14.337,43.413 20.210,43.413 20.210,43.413 C20.210,43.413 19.236,45.314 20.410,46.490 C21.586,47.667 23.246,47.380 23.246,47.380 L23.246,49.932 L26.852,49.932 L26.852,47.787 C26.852,47.787 28.652,47.908 29.057,47.827 C29.463,47.747 29.785,47.421 29.785,47.421 L29.785,49.932 L34.586,50.039 L34.328,46.894 L37.459,46.855 L37.459,50.053 L43.090,50.053 C43.090,50.053 43.205,47.621 42.806,46.003 C42.402,44.384 41.508,42.924 41.386,42.885 C41.265,42.845 50.500,42.236 53.662,39.199 C56.821,36.164 55.484,33.168 54.557,30.697 ZM3.284,22.681 C3.269,22.974 3.290,23.291 3.326,23.618 C3.005,23.461 2.346,22.984 1.704,21.586 C0.808,19.642 1.056,16.887 1.056,16.887 C1.056,16.887 1.138,16.849 1.420,16.849 C1.704,16.849 2.392,17.131 2.392,17.131 L5.550,18.306 C5.550,18.306 3.364,21.139 3.284,22.681 ZM16.105,34.464 C15.998,34.814 15.970,35.111 16.023,35.247 C16.082,35.380 16.105,36.002 16.105,36.002 L14.298,35.814 C14.298,35.814 14.703,35.652 14.592,35.410 C14.488,35.165 14.135,35.085 14.135,35.004 C14.135,34.922 14.056,34.492 14.243,33.980 C14.431,33.467 14.944,32.494 14.944,32.494 L16.051,32.628 C16.052,32.627 16.214,34.111 16.105,34.464 ZM20.129,36.301 C20.129,36.301 20.451,36.031 20.371,35.867 C20.286,35.707 19.696,35.759 19.208,35.650 C18.724,35.545 18.429,35.247 18.346,34.867 C18.266,34.490 18.537,32.683 18.537,32.683 L19.156,32.708 C19.156,32.708 19.696,26.660 19.696,25.255 C19.696,23.854 19.751,23.151 19.614,22.691 C19.480,22.232 19.373,21.909 19.373,21.909 L19.427,21.290 C19.427,21.290 19.777,21.559 20.158,21.585 C20.335,21.598 20.474,21.573 20.575,21.544 L20.575,27.296 C20.562,27.451 20.548,27.589 20.532,27.687 C20.371,28.791 20.641,31.818 20.506,32.548 C20.371,33.277 20.426,34.678 20.426,34.678 L20.575,34.829 L20.575,36.301 L20.129,36.301 ZM27.869,36.400 C27.124,36.406 26.691,36.406 26.691,36.406 C26.691,36.406 26.812,35.920 26.527,35.883 C26.244,35.842 25.395,35.920 25.191,35.474 C24.988,35.031 25.232,34.342 25.232,34.342 L25.757,34.262 L26.325,30.576 C26.325,30.576 27.742,30.374 27.782,30.007 C27.824,29.644 27.984,28.146 27.984,28.146 L27.869,36.400 Z" class="cls-1"/>
</svg>
